<svg xmlns="http://www.w3.org/2000/svg" width="23" height="23" viewBox="0 0 23 23"><defs><style>.a{fill:none;stroke:#f4f4f4;}</style></defs><g transform="translate(0.5 0.5)"><g transform="translate(0 0)"><path class="a" d="M1079,122.981a1.02,1.02,0,0,1-1.018,1.019h-5.806v-8.3h3.147l.52-3.157h-3.667v-2.19a1.5,1.5,0,0,1,1.528-1.528h2.088v-3.157H1073.7a4.684,4.684,0,0,0-4.684,4.694v2.181h-3.057V115.7h3.057V124h-11a1.02,1.02,0,0,1-1.019-1.019V103.019a1.02,1.02,0,0,1,1.019-1.019h19.963a1.02,1.02,0,0,1,1.018,1.019Z" transform="translate(-1057 -102)"/></g></g></svg>