<svg xmlns="http://www.w3.org/2000/svg" width="22.821" height="23" viewBox="0 0 22.821 23"><defs><style>.a,.b{fill:#f4f4f4;}.a{stroke:#1b1b1b;}</style></defs><g transform="translate(0.5 0.5)"><g transform="translate(0 0)"><g transform="translate(0 0)"><path class="a" d="M21.766,6.468A8.1,8.1,0,0,0,21.258,3.8,5.373,5.373,0,0,0,20,1.848,5.367,5.367,0,0,0,18.065.58,7.94,7.94,0,0,0,15.417.069C14.249.013,13.878,0,10.915,0s-3.334.013-4.5.064A7.922,7.922,0,0,0,3.769.576,5.321,5.321,0,0,0,1.833,1.848,5.421,5.421,0,0,0,.576,3.795,8.117,8.117,0,0,0,.068,6.464C.013,7.641,0,8.015,0,11s.013,3.361.064,4.534a8.1,8.1,0,0,0,.507,2.669,5.429,5.429,0,0,0,1.262,1.951,5.367,5.367,0,0,0,1.931,1.268,7.941,7.941,0,0,0,2.648.511c1.164.052,1.535.064,4.5.064s3.334-.013,4.5-.064a7.918,7.918,0,0,0,2.648-.511,5.605,5.605,0,0,0,3.194-3.219,8.122,8.122,0,0,0,.507-2.669c.051-1.173.064-1.547.064-4.534S21.817,7.641,21.766,6.468ZM19.8,15.45a6.072,6.072,0,0,1-.375,2.041,3.635,3.635,0,0,1-2.072,2.089,5.962,5.962,0,0,1-2.025.378c-1.151.052-1.5.064-4.409.064s-3.262-.013-4.409-.064a5.938,5.938,0,0,1-2.025-.378,3.356,3.356,0,0,1-1.253-.821A3.423,3.423,0,0,1,2.417,17.5a6.1,6.1,0,0,1-.375-2.041c-.051-1.16-.064-1.509-.064-4.444s.013-3.288.064-4.444a6.069,6.069,0,0,1,.375-2.041,3.346,3.346,0,0,1,.819-1.264A3.385,3.385,0,0,1,4.49,2.441a5.966,5.966,0,0,1,2.025-.378C7.666,2.011,8.011,2,10.923,2s3.262.013,4.409.064a5.941,5.941,0,0,1,2.025.378,3.353,3.353,0,0,1,1.253.821,3.422,3.422,0,0,1,.814,1.264A6.1,6.1,0,0,1,19.8,6.567c.051,1.16.064,1.508.064,4.444S19.851,14.29,19.8,15.45Z" transform="translate(0 0)"/><path class="a" d="M11.4,5.836A5.652,5.652,0,1,0,17,11.487,5.631,5.631,0,0,0,11.4,5.836Zm0,9.318a3.666,3.666,0,1,1,3.637-3.666A3.652,3.652,0,0,1,11.4,15.153Z" transform="translate(-0.481 -0.485)"/><path class="b" d="M18.757,5.122a.961.961,0,1,1-.961-.969.965.965,0,0,1,.961.969Z" transform="translate(-1.052 0.005)"/></g></g></g></svg>