<svg xmlns="http://www.w3.org/2000/svg" width="23" height="22.973" viewBox="0 0 23 22.973"><defs><style>.a{fill:none;stroke:#fff;}</style></defs><g transform="translate(0.5 0.5)"><g transform="translate(0 0)"><g transform="translate(0 0)"><path class="a" d="M.3,7.821H5.02V22.647H.3Z" transform="translate(-0.025 -0.674)"/><path class="a" d="M2.668.024A2.509,2.509,0,0,0,0,2.586,2.492,2.492,0,0,0,2.606,5.147h.031A2.509,2.509,0,0,0,5.3,2.586,2.5,2.5,0,0,0,2.668.024Z" transform="translate(0 -0.024)"/><path class="a" d="M17.262,7.442a4.655,4.655,0,0,0-4.25,2.447V7.79H8.3V22.615h4.716V14.336a3.519,3.519,0,0,1,.155-1.2,2.6,2.6,0,0,1,2.42-1.8c1.706,0,2.389,1.36,2.389,3.353v7.931h4.716v-8.5c0-4.554-2.327-6.673-5.429-6.673Z" transform="translate(-0.691 -0.643)"/></g></g></g></svg>