<svg xmlns="http://www.w3.org/2000/svg" width="21.633" height="17.945" viewBox="0 0 21.633 17.945"><defs><style>.a{fill:none;stroke:#fff;stroke-linecap:square;}</style></defs><g transform="translate(0.274 0.807)"><g transform="translate(0 0)"><g transform="translate(0 0)"><path class="a" d="M6.29,16.662c7.548,0,11.675-6.4,11.675-11.951q0-.273-.012-.543A8.461,8.461,0,0,0,20,1.993a8.038,8.038,0,0,1-2.356.661,4.2,4.2,0,0,0,1.8-2.323,8.118,8.118,0,0,1-2.606,1.019,4.055,4.055,0,0,0-3-1.327,4.153,4.153,0,0,0-4.1,4.2,4.291,4.291,0,0,0,.106.958A11.564,11.564,0,0,1,1.392.793,4.27,4.27,0,0,0,2.662,6.4,4,4,0,0,1,.8,5.875c0,.018,0,.035,0,.054A4.178,4.178,0,0,0,4.1,10.046a4.006,4.006,0,0,1-1.853.072,4.121,4.121,0,0,0,3.833,2.917A8.144,8.144,0,0,1,0,14.776a11.422,11.422,0,0,0,6.29,1.887" transform="translate(0 -0.024)"/></g></g></g></svg>